<svg width="48" height="48" viewBox="0 0 48 48" fill="none" xmlns="http://www.w3.org/2000/svg">
<rect width="48" height="48" fill="#040404"/>
<path d="M13.9844 33.2959H10L16.7197 14H20.7041L13.9844 33.2959Z" fill="#FCFCFC"/>
<path fill-rule="evenodd" clip-rule="evenodd" d="M27.1133 18.4873C28.4252 18.4873 29.5858 18.783 30.5938 19.375C31.4639 19.8781 32.1993 20.5676 32.8037 21.4404L33.1377 18.8955H38.8496L37.9375 25.7598L38.8496 32.6475H33.1377L32.7969 30.0801C32.2021 30.9507 31.4691 31.6472 30.5938 32.167C29.5858 32.759 28.4253 33.0557 27.1133 33.0557C25.7856 33.0556 24.6098 32.7514 23.5859 32.1436C22.562 31.5356 21.7615 30.6875 21.1855 29.5996C20.6255 28.4956 20.3457 27.2232 20.3457 25.7832C20.3457 24.3113 20.6256 23.0313 21.1855 21.9434C21.7615 20.8394 22.5619 19.9914 23.5859 19.3994C24.6098 18.7915 25.7855 18.4874 27.1133 18.4873ZM28.8418 22.6396C28.2659 22.6396 27.7536 22.7749 27.3057 23.0469C26.8577 23.3189 26.506 23.6958 26.25 24.1758C26.0101 24.6397 25.8897 25.1754 25.8896 25.7832C25.8896 26.3912 26.01 26.9276 26.25 27.3916C26.506 27.8554 26.8578 28.2232 27.3057 28.4951C27.7537 28.7671 28.2658 28.9033 28.8418 28.9033C29.4338 28.9033 30.0019 28.7671 30.5459 28.4951C31.0897 28.2232 31.5695 27.8554 31.9854 27.3916C32.4014 26.9276 32.7055 26.3912 32.8975 25.7832C32.7055 25.1753 32.4013 24.6397 31.9854 24.1758C31.5694 23.6958 31.0899 23.3189 30.5459 23.0469C30.0019 22.7749 29.4338 22.6397 28.8418 22.6396Z" fill="#FCFCFC"/>
</svg>
